<svg width="24" height="24" viewBox="0 0 24 24" fill="none" xmlns="http://www.w3.org/2000/svg">
<path d="M12.3329 3.6598C14.5469 3.6598 16.5509 4.5298 18.0449 5.9398H14.7329V7.2598H20.1929V1.7998H18.8729V4.8958C17.1509 3.3118 14.8529 2.3398 12.3329 2.3398C6.99885 2.3398 2.67285 6.6658 2.67285 11.9998H3.99285C3.99285 9.6958 4.92285 7.6138 6.43485 6.1018C7.94685 4.5898 10.0289 3.6598 12.3329 3.6598Z" fill="#826809"/>
<path d="M20.6736 12C20.6736 14.304 19.7436 16.386 18.2316 17.898C16.7196 19.41 14.6376 20.34 12.3336 20.34C10.1196 20.34 8.11563 19.47 6.62163 18.06H9.93363V16.74H4.47363V22.2H5.79363V19.104C7.51563 20.688 9.81363 21.66 12.3336 21.66C17.6676 21.66 21.9936 17.334 21.9936 12H20.6736Z" fill="#826809"/>
</svg>
