<svg width="44" height="45" viewBox="0 0 44 45" fill="none" xmlns="http://www.w3.org/2000/svg">
<rect y="0.5" width="44" height="44" rx="22" fill="#1C77CF"/>
<path fill-rule="evenodd" clip-rule="evenodd" d="M16.1611 17.75L22.0005 14.2489L27.8399 17.75H16.1611ZM10.7422 19.25L22.0005 12.5L33.2589 19.25H29.0005V26.5H30.5005V28.5H32.5005V32.5H11.5005V28.5H13.5005V26.5H15.0005V19.25H10.7422ZM19.3082 26.5H16.0774L16.0774 19.25H19.3082V26.5ZM27.9236 26.5V19.25H24.6927V26.5H27.9236ZM23.6158 26.5H20.3851V19.25H23.6158V26.5ZM13.0005 30H15.0005V28H29.0005V30H31.0005V31H13.0005V30Z" fill="white"/>
</svg>
