<svg width="24" height="24" viewBox="0 0 24 24" fill="none" xmlns="http://www.w3.org/2000/svg">
<path d="M19.8482 3.54023H18.3542C18.3242 2.53823 17.5082 1.74023 16.5002 1.74023C15.4922 1.74023 14.6762 2.53823 14.6462 3.54023H9.35423C9.32423 2.53823 8.50823 1.74023 7.50023 1.74023C6.49223 1.74023 5.67623 2.53823 5.64623 3.54023H4.15223C2.82023 3.54023 1.74023 4.62023 1.74023 5.95223V19.2482C1.74023 20.5802 2.82023 21.6602 4.15223 21.6602H19.8482C21.1802 21.6602 22.2602 20.5802 22.2602 19.2482V5.95223C22.2602 4.62023 21.1802 3.54023 19.8482 3.54023ZM15.9602 3.60023C15.9602 3.30023 16.2002 3.06023 16.5002 3.06023C16.8002 3.06023 17.0402 3.30023 17.0402 3.60023V4.80023C17.0402 5.10023 16.8002 5.34023 16.5002 5.34023C16.2002 5.34023 15.9602 5.10023 15.9602 4.80023V3.60023ZM6.96023 3.60023C6.96023 3.30023 7.20023 3.06023 7.50023 3.06023C7.80023 3.06023 8.04023 3.30023 8.04023 3.60023V4.80023C8.04023 5.10023 7.80023 5.34023 7.50023 5.34023C7.20023 5.34023 6.96023 5.10023 6.96023 4.80023V3.60023ZM4.15223 4.86023H5.64623C5.67623 5.86223 6.49223 6.66023 7.50023 6.66023C8.50823 6.66023 9.32423 5.86223 9.35423 4.86023H14.6462C14.6762 5.86223 15.4922 6.66023 16.5002 6.66023C17.5082 6.66023 18.3242 5.86223 18.3542 4.86023H19.8482C20.4482 4.86023 20.9402 5.34623 20.9402 5.95223V9.12023H3.06023V5.95223C3.06023 5.35223 3.54623 4.86023 4.15223 4.86023ZM19.8482 20.3402H4.15223C3.55223 20.3402 3.06023 19.8542 3.06023 19.2482V10.0802H20.9402V19.2482C20.9402 19.8482 20.4542 20.3402 19.8482 20.3402Z" fill="#636574"/>
</svg>
