<svg width="44" height="45" viewBox="0 0 44 45" fill="none" xmlns="http://www.w3.org/2000/svg">
<rect y="0.5" width="44" height="44" rx="22" fill="#1C77CF"/>
<path fill-rule="evenodd" clip-rule="evenodd" d="M24.5 14H19.5C19.2239 14 19 14.2239 19 14.5V17H25V14.5C25 14.2239 24.7761 14 24.5 14ZM17.5 14.5V17H14C12.8954 17 12 17.8954 12 19V30.5C12 31.6046 12.8954 32.5 14 32.5H30C31.1046 32.5 32 31.6046 32 30.5V19C32 17.8954 31.1046 17 30 17H26.5V14.5C26.5 13.3954 25.6046 12.5 24.5 12.5H19.5C18.3954 12.5 17.5 13.3954 17.5 14.5ZM17.5 18.5H26.5H30C30.2761 18.5 30.5 18.7239 30.5 19V30.5C30.5 30.7761 30.2761 31 30 31H14C13.7239 31 13.5 30.7761 13.5 30.5V19C13.5 18.7239 13.7239 18.5 14 18.5H17.5ZM28 28C28 28.2761 27.7761 28.5 27.5 28.5C27.2239 28.5 27 28.2761 27 28C27 27.7239 27.2239 27.5 27.5 27.5C27.7761 27.5 28 27.7239 28 28ZM29 28C29 28.8284 28.3284 29.5 27.5 29.5C26.6716 29.5 26 28.8284 26 28C26 27.1716 26.6716 26.5 27.5 26.5C28.3284 26.5 29 27.1716 29 28Z" fill="white"/>
</svg>
