<svg width="24" height="24" viewBox="0 0 24 24" fill="none" xmlns="http://www.w3.org/2000/svg">
<path d="M20.0512 3.63965H3.94725C2.75325 3.63965 1.78125 4.61165 1.78125 5.80565V17.7937C1.78125 18.9877 2.75325 19.9597 3.94725 19.9597H7.51725V20.8417C7.51725 21.2857 7.70925 21.6817 7.99125 21.9457C8.27925 22.2097 8.64525 22.3596 9.04125 22.3596C9.41325 22.3596 9.80925 22.2157 10.1092 21.9157L12.0653 19.9597H20.0512C21.2452 19.9597 22.2172 18.9877 22.2172 17.7937V5.80565C22.2172 4.61165 21.2452 3.63965 20.0512 3.63965ZM20.8973 17.7937C20.8973 18.2617 20.5192 18.6397 20.0512 18.6397H11.5192L9.17925 20.9797L9.04725 21.0397L8.90325 20.9797C8.86725 20.9437 8.84925 20.9137 8.84925 20.8357V18.6337H3.94725C3.47925 18.6337 3.10125 18.2557 3.10125 17.7877V5.80565C3.10125 5.33765 3.47925 4.95965 3.94725 4.95965H20.0512C20.5192 4.95965 20.8973 5.33765 20.8973 5.80565V17.7937Z" fill="#CA303D"/>
<path d="M7.39725 8.4541H16.8392C17.0372 8.4541 17.2053 8.6341 17.2053 8.8561C17.2053 9.0781 17.0432 9.2581 16.8392 9.2581H7.39725C7.19325 9.2581 7.03125 9.0781 7.03125 8.8561C7.03125 8.6341 7.19325 8.4541 7.39725 8.4541Z" fill="#CA303D"/>
<path d="M7.39725 11.3401H16.8392C17.0372 11.3401 17.2053 11.5201 17.2053 11.7421C17.2053 11.9641 17.0432 12.1441 16.8392 12.1441H7.39725C7.19325 12.1441 7.03125 11.9641 7.03125 11.7421C7.03125 11.5201 7.19325 11.3401 7.39725 11.3401Z" fill="#CA303D"/>
<path d="M7.39725 14.2321H16.8392C17.0372 14.2321 17.2053 14.4121 17.2053 14.6341C17.2053 14.8561 17.0432 15.0361 16.8392 15.0361H7.39725C7.19325 15.0361 7.03125 14.8561 7.03125 14.6341C7.03125 14.4121 7.19325 14.2321 7.39725 14.2321Z" fill="#CA303D"/>
</svg>
