<svg width="10" height="11" viewBox="0 0 10 11" fill="none" xmlns="http://www.w3.org/2000/svg">
<path fill-rule="evenodd" clip-rule="evenodd" d="M0.528023 0.985892C0.731431 0.782484 1.06122 0.782484 1.26463 0.985892L9.55624 9.27751C9.75965 9.48092 9.75965 9.81071 9.55624 10.0141C9.35284 10.2175 9.02305 10.2175 8.81964 10.0141L0.528023 1.7225C0.324615 1.51909 0.324615 1.1893 0.528023 0.985892Z" fill="white"/>
<path fill-rule="evenodd" clip-rule="evenodd" d="M0.485892 10.0141C0.282484 9.81071 0.282484 9.48092 0.485892 9.27751L8.77751 0.985892C8.98091 0.782484 9.3107 0.782484 9.51411 0.985892C9.71752 1.1893 9.71752 1.51909 9.51411 1.7225L1.2225 10.0141C1.01909 10.2175 0.6893 10.2175 0.485892 10.0141Z" fill="white"/>
</svg>
