<svg width="10" height="11" viewBox="0 0 10 11" fill="none" xmlns="http://www.w3.org/2000/svg">
<path fill-rule="evenodd" clip-rule="evenodd" d="M0.528016 0.985892C0.731424 0.782484 1.06121 0.782484 1.26462 0.985892L9.55624 9.27751C9.75964 9.48092 9.75964 9.81071 9.55624 10.0141C9.35283 10.2175 9.02304 10.2175 8.81963 10.0141L0.528016 1.7225C0.324608 1.51909 0.324608 1.1893 0.528016 0.985892Z" fill="#2E2F37"/>
<path fill-rule="evenodd" clip-rule="evenodd" d="M0.485884 10.0141C0.282476 9.81071 0.282476 9.48092 0.485884 9.27751L8.7775 0.985892C8.98091 0.782484 9.3107 0.782484 9.5141 0.985892C9.71751 1.1893 9.71751 1.51909 9.5141 1.7225L1.22249 10.0141C1.01908 10.2175 0.689292 10.2175 0.485884 10.0141Z" fill="#2E2F37"/>
</svg>
