<svg width="24" height="24" viewBox="0 0 24 24" fill="none" xmlns="http://www.w3.org/2000/svg">
<path d="M20.6252 5.08207L18.6605 3.09007C18.3527 2.77807 17.9503 2.62207 17.5479 2.62207C17.1455 2.62207 16.7431 2.77807 16.4354 3.09007L2.58769 17.1361C2.47525 17.2501 2.41016 17.4061 2.41016 17.5681L2.42199 20.8141C2.42199 21.2161 2.74155 21.5401 3.13805 21.5401L6.33958 21.5521C6.49936 21.5521 6.65322 21.4861 6.76566 21.3721L20.6252 7.33207C21.2406 6.70807 21.2406 5.70007 20.6252 5.08207ZM6.05553 20.2381H3.71799V17.8621L14.8849 6.53407L17.2283 8.91007L6.05553 20.2381ZM19.702 6.39607L17.8911 8.23207L15.5477 5.85607L17.3585 4.02007C17.4236 3.95407 17.4946 3.94207 17.5479 3.94207C17.6012 3.94207 17.6722 3.95407 17.7373 4.02007L19.702 6.01207C19.7671 6.07807 19.7789 6.15007 19.7789 6.20407C19.7789 6.25807 19.7671 6.33007 19.702 6.39607V6.39607Z" fill="#2E2F37"/>
</svg>
