<svg width="56" height="56" viewBox="0 0 56 56" fill="none" xmlns="http://www.w3.org/2000/svg">
<rect x="0.5" y="0.5" width="55" height="55" rx="27.5" fill="white"/>
<path d="M30.1837 20.9053V20.3618C30.1837 19.0747 29.1403 18.0312 27.8532 18.0312H19.3746V18H18V38H19.3746V31.6082H25.8413V32.1518C25.8413 33.4389 26.8847 34.4824 28.1718 34.4824H38.0312V20.9053H30.1899H30.1837ZM36.6504 33.1015H28.1656C27.6407 33.1015 27.2096 32.6767 27.2096 32.1456V30.2274H19.3746V19.4121H27.8594C28.3843 19.4121 28.8154 19.8369 28.8154 20.368V20.5055V29.8775H30.1899V22.2799H36.6567V33.1015H36.6504Z" fill="#636574"/>
<rect x="0.5" y="0.5" width="55" height="55" rx="27.5" stroke="#DBDBDB"/>
</svg>
