<svg width="16" height="16" viewBox="0 0 16 16" fill="none" xmlns="http://www.w3.org/2000/svg">
<path d="M9.26001 7.50376C9.70001 7.25176 10.22 6.95576 10.66 6.56376C10.88 6.36776 11.08 6.14376 11.228 5.87576C11.376 5.61176 11.472 5.29976 11.472 4.96776V2.43176H12.236V1.55176H3.76401V2.43176H4.52801V4.96776C4.52801 5.52376 4.78801 5.99176 5.12001 6.34776C5.62001 6.88376 6.29201 7.24376 6.82401 7.55176C7.08801 7.70376 7.31601 7.83976 7.45201 7.94776C7.47601 7.96776 7.49201 7.98376 7.51201 7.99976C7.49201 8.01976 7.47201 8.03576 7.44401 8.05976C7.29201 8.17576 7.03601 8.32776 6.74401 8.49176C6.30401 8.74376 5.78401 9.03976 5.34401 9.43176C5.12401 9.62776 4.92401 9.85176 4.77601 10.1198C4.62801 10.3838 4.53201 10.6958 4.53201 11.0278V13.5638H3.76801V14.4438H12.236V13.5638H11.472V11.0278C11.472 10.4718 11.212 10.0038 10.88 9.64776C10.38 9.11176 9.70801 8.75176 9.17601 8.44376C8.91201 8.29176 8.68401 8.15576 8.54801 8.04776C8.52401 8.02776 8.50801 8.01176 8.48801 7.99576C8.50801 7.97576 8.52801 7.95976 8.55601 7.93576C8.70801 7.81976 8.96401 7.66776 9.25601 7.50376H9.26001ZM7.21601 6.76376C6.77201 6.51176 6.28801 6.23176 5.94401 5.92376C5.77201 5.77176 5.63201 5.61176 5.54401 5.45176C5.45601 5.29176 5.40801 5.13976 5.40801 4.96776V2.43176H10.592V4.96776C10.592 5.24776 10.472 5.48776 10.236 5.74776C9.88401 6.13576 9.27601 6.47976 8.74001 6.78776C8.47201 6.94376 8.22001 7.08776 8.00801 7.25176L8.00001 7.25976C7.77601 7.08376 7.50801 6.92776 7.22001 6.76376H7.21601ZM8.78001 9.23176C9.22401 9.48376 9.70801 9.76376 10.052 10.0718C10.224 10.2238 10.364 10.3838 10.452 10.5438C10.54 10.7038 10.588 10.8558 10.588 11.0278V13.5638H5.40801V11.0278C5.40801 10.7478 5.52801 10.5078 5.76401 10.2478C6.11601 9.85976 6.72401 9.51576 7.26001 9.20776C7.52801 9.05176 7.78001 8.90776 7.99201 8.74376L8.00001 8.73576C8.22401 8.91176 8.49201 9.06776 8.78001 9.23176Z" fill="#AA4500"/>
<path d="M9.69205 11.916H6.30405V12.556H9.69205V11.916Z" fill="#AA4500"/>
</svg>
