<svg width="44" height="45" viewBox="0 0 44 45" fill="none" xmlns="http://www.w3.org/2000/svg">
<rect y="0.5" width="44" height="44" rx="22" fill="#1C77CF"/>
<path d="M22 31.4462C19.72 28.9442 15.07 23.1962 15.07 20.1902C15.07 16.3742 18.178 13.2602 22 13.2602C25.822 13.2602 28.93 16.3742 28.93 20.1902C28.93 23.2022 24.274 28.9442 22 31.4462ZM22 11.7002C17.356 11.7002 13.582 15.4742 13.582 20.1122C13.582 24.7502 21.22 32.7602 21.544 33.1082C21.664 33.2282 21.826 33.3002 21.994 33.3002C22.162 33.3002 22.324 33.2282 22.444 33.1082C22.768 32.7602 30.406 24.6122 30.406 20.1122C30.406 15.6122 26.638 11.7002 22 11.7002ZM22 21.5162C20.716 21.5162 19.672 20.4722 19.672 19.1882C19.672 17.9042 20.716 16.8662 22 16.8662C23.284 16.8662 24.322 17.9102 24.322 19.1882C24.322 20.4662 23.278 21.5162 22 21.5162ZM22 15.9782C20.23 15.9782 18.79 17.4182 18.79 19.1882C18.79 20.9582 20.23 22.3982 22 22.3982C23.77 22.3982 25.21 20.9582 25.21 19.1882C25.21 17.4182 23.764 15.9782 22 15.9782Z" fill="white"/>
</svg>
