<svg width="49" height="48" viewBox="0 0 49 48" fill="none" xmlns="http://www.w3.org/2000/svg">
<circle cx="24.5" cy="24" r="24" fill="#1E2347"/>
<path fill-rule="evenodd" clip-rule="evenodd" d="M24.74 13.2921C25.2322 13.291 25.6303 13.6891 25.6292 14.1813L25.584 34.2451C25.5829 34.7373 25.183 35.1372 24.6908 35.1383C24.1986 35.1394 23.8005 34.7413 23.8016 34.2491L23.8468 14.1853C23.8479 13.6931 24.2478 13.2932 24.74 13.2921Z" fill="white"/>
<path fill-rule="evenodd" clip-rule="evenodd" d="M13.7414 24.1889C13.7425 23.6967 14.1424 23.2968 14.6346 23.2957L34.6984 23.2505C35.1906 23.2494 35.5887 23.6475 35.5876 24.1397C35.5865 24.6319 35.1866 25.0318 34.6944 25.0329L14.6306 25.0781C14.1384 25.0792 13.7403 24.6811 13.7414 24.1889Z" fill="white"/>
</svg>
