<svg width="48" height="48" viewBox="0 0 48 48" fill="none" xmlns="http://www.w3.org/2000/svg">
<path fill-rule="evenodd" clip-rule="evenodd" d="M37.7148 29.4524C37.435 29.1694 36.6623 29.3941 36.5665 29.5469C36.2563 28.5033 35.6379 27.6076 34.8816 27.0342C34.8816 27.0342 34.8786 26.8378 34.9727 26.7426C35.1493 26.6469 35.6585 26.7113 36.0651 26.5222C36.3753 26.3774 36.4378 27.3406 37.279 27.2147C37.8762 27.1251 37.872 26.4897 37.5284 26.5529C37.4222 26.5192 37.282 26.7789 37.1558 26.8053C36.7176 26.9004 36.6569 26.238 36.6569 25.955C36.6569 25.8285 36.9051 25.0342 36.7176 24.5037C36.4845 23.8352 35.7398 23.4669 35.4097 23.244C35.3168 23.1826 35.1523 22.791 35.349 22.6442C35.8157 22.298 34.9126 21.9825 34.7572 22.7701C34.6716 23.2047 34.8458 23.3226 34.8179 23.5596C34.7863 23.8432 33.9397 24.419 34.631 24.947C35.0054 25.2306 35.1201 24.7628 34.9429 24.5363C34.6006 24.0949 36.1568 23.4313 36.2205 25.1035C36.2448 25.7978 35.1141 26.1115 34.8646 26.2085C32.9637 26.2085 31.4221 24.3668 31.4221 22.0954C31.4221 20.3384 32.3677 18.8233 33.6641 18.2334C34.1946 17.6354 36.3759 17.7306 36.283 16.7846C36.2181 16.1394 35.5966 15.8066 35.2512 16.1541C35.0959 16.469 35.6251 16.5016 35.5942 16.8159C35.5656 17.1075 35.0479 17.1842 34.691 16.9417C34.509 16.819 34.4416 16.6286 34.41 16.3113C34.285 15.0509 36.7771 14.1374 36.7771 14.1374C36.7771 14.1374 34.7196 13.507 34.6571 12.9096C34.6055 12.4075 34.8446 12.3424 35.0637 12.6254C35.193 12.7942 35.5626 12.4363 35.1244 12.0275C34.7821 11.8059 34.282 12.0023 34.1284 12.5315C33.9749 13.0607 32.0436 10.6996 31.7948 10.0071C31.6734 9.67133 31.799 8.92667 32.199 9.06111C32.4806 9.15688 32.4187 9.34473 32.324 9.47058C32.2124 9.62344 32.3113 9.88988 32.5122 9.91198C32.7131 9.93408 33.0256 9.70816 33.042 9.31404C33.0724 8.5571 31.64 7.98924 31.2655 9.15688C31.1873 9.39876 30.9839 9.06111 30.8292 8.93526C30.4844 8.65532 28.3365 6.06774 25.47 6.0352C24.3775 6.02354 24.877 6.30102 24.3472 6.25743C23.9745 6.2249 23.7226 5.68958 23.5679 5.49927C23.4756 5.65581 23.1637 6.22367 22.7892 6.25621C22.2606 6.29979 22.7631 6.02292 21.6682 6.03397C18.8005 6.06712 16.6544 8.6541 16.309 8.93403C16.1524 9.05681 15.9497 9.39753 15.8726 9.15565C15.4982 7.98924 14.0658 8.55587 14.0962 9.31281C14.1119 9.70693 14.4239 9.93408 14.6254 9.91075C14.8269 9.88742 14.9252 9.62222 14.8129 9.46935C14.7183 9.34657 14.6576 9.15565 14.9374 9.05988C15.3392 8.92544 15.4642 9.6701 15.3422 10.0059C15.0927 10.6984 13.1609 13.0631 13.0061 12.5272C12.8514 11.9913 12.3519 11.8028 12.0089 12.0244C11.5726 12.4333 11.9422 12.7912 12.0696 12.6223C12.2875 12.3393 12.5266 12.4044 12.4763 12.9066C12.4119 13.5057 10.3563 14.1344 10.3563 14.1344C10.3563 14.1344 11.3668 14.5273 12.0696 15.1424C12.4502 15.4751 12.7676 15.8668 12.7245 16.3088C12.6936 16.6268 12.6256 16.8165 12.4441 16.9393C12.086 17.1848 11.5695 17.105 11.541 16.8134C11.5088 16.4997 12.0381 16.4672 11.8833 16.1516C11.541 15.8042 10.9189 16.1375 10.8515 16.7827C10.7593 17.7288 12.94 17.633 13.4692 18.2315C14.7674 18.8209 15.7148 20.336 15.7148 22.093C15.7148 24.3644 14.1732 26.2061 12.2723 26.2061C12.0229 26.1109 10.8898 25.7966 10.9165 25.1011C10.9772 23.43 12.5364 24.0918 12.191 24.5332C12.0138 24.7628 12.1303 25.2275 12.503 24.9445C13.1943 24.419 12.3476 23.8395 12.316 23.5571C12.2893 23.3177 12.4635 23.2017 12.3767 22.7676C12.222 21.98 11.3164 22.2949 11.7838 22.6449C11.9804 22.7916 11.8159 23.1814 11.7231 23.2446C11.3917 23.4675 10.647 23.8358 10.4139 24.5037C10.2282 25.0366 10.4746 25.8292 10.4746 25.955C10.4746 26.238 10.4139 26.901 9.97634 26.8059C9.84949 26.7795 9.70868 26.5192 9.60186 26.5529C9.25955 26.4916 9.25409 27.1257 9.85131 27.2147C10.6925 27.3375 10.8831 26.3645 11.0985 26.4596C11.6885 26.7144 11.9798 26.6469 12.1564 26.7426C12.2511 26.8378 12.2499 27.0342 12.2499 27.0342C11.4912 27.6076 10.8746 28.5027 10.5644 29.5469C10.4692 29.3947 9.69593 29.1694 9.41614 29.453C9.07262 29.7685 9.18005 30.1627 9.19765 30.3051C9.2286 30.5562 9.7633 30.6188 9.69593 30.1148C9.63524 29.6421 10.2573 29.8011 10.3502 30.2732C10.4716 30.9976 10.2816 31.2879 10.318 31.5341C10.6312 33.5514 12.0581 34.8111 13.7314 34.8111C13.9992 34.8134 14.2665 34.7844 14.5277 34.7246C14.8245 34.6533 14.9932 35.1893 15.2426 35.6307C15.2426 35.6307 14.2145 36.0395 14.3395 36.8278C14.4646 37.616 15.1807 38.0261 15.7094 37.3324C15.9273 37.0494 15.554 37.0169 15.1498 37.0169C14.8427 36.7971 14.873 36.4171 15.6165 36.2611C16.5202 36.0721 17.3293 38.0261 17.6424 38.8457C17.9556 39.6652 19.6665 41.9342 22.0044 41.3976C22.1592 41.3627 23.5612 43.5101 23.5612 43.5101C23.5612 43.5101 24.965 41.3614 25.1204 41.3976C27.4577 41.9342 29.1716 39.664 29.4824 38.8457C29.7931 38.0273 30.6046 36.0721 31.5077 36.2611C32.2518 36.4171 32.2822 36.7971 31.975 37.0169C31.5708 37.0169 31.1976 37.0494 31.4149 37.3324C31.9429 38.0261 32.6609 37.6173 32.7853 36.8278C32.9097 36.0383 31.8822 35.6307 31.8822 35.6307C32.1316 35.1893 32.2991 34.6533 32.5971 34.7246C32.8582 34.7844 33.1252 34.8134 33.3928 34.8111C35.0667 34.8111 36.6502 33.5514 36.7425 31.439C36.7546 31.1934 36.6818 30.6968 36.7746 30.2726C36.8675 29.8005 37.4914 29.6415 37.4289 30.1142C37.3621 30.6188 37.8956 30.5556 37.9278 30.3045C37.943 30.1621 38.0492 29.7673 37.7081 29.4518L37.7148 29.4524ZM23.1952 8.58902C23.475 8.17771 23.5673 7.67493 23.6298 7.9254C23.7372 8.35513 24.0983 8.55649 23.9417 8.68295C23.7026 8.87633 23.092 8.74004 23.1952 8.58902ZM23.5673 42.4695L22.7588 41.2718L23.5673 40.1379L24.3781 41.2718L23.5673 42.4695ZM36.2496 31.3444C36.2496 32.9817 34.9593 34.3077 33.3692 34.3077C32.6898 34.3083 32.0327 34.0629 31.5168 33.6159C31.1215 33.181 30.8985 32.6141 30.8905 32.0234C30.8905 30.8822 31.7347 29.9582 32.6973 29.9582C32.8223 30.0473 32.9789 29.8969 33.1962 30.5869C33.4772 30.714 33.5075 30.4813 33.5075 30.2106C33.5075 29.7685 33.0408 29.5795 32.48 29.3597C32.0685 29.197 32.4193 28.305 31.7942 28.2547C31.3894 28.2234 31.2328 28.4131 31.3275 28.6955C31.3881 28.941 31.6109 28.7145 31.7317 28.7912C32.1377 29.0435 31.569 29.7587 31.569 29.7587C30.9238 30.3382 30.5166 31.1553 30.5166 32.0056C30.5166 32.5471 30.6829 33.0228 30.9226 33.4875C31.1994 33.8381 31.4531 34.1628 31.7511 34.3587C31.7511 34.3587 32.0418 35.064 31.2971 35.6933C30.9226 36.0088 30.5488 35.5981 29.3015 37.8039C29.2378 37.9199 29.0242 37.465 28.555 37.3005C28.2418 37.1108 27.3072 37.3005 27.2459 38.1206C27.1852 38.8757 27.9317 38.4994 28.118 37.8683C28.3571 37.7099 28.5769 37.9973 28.7407 38.3085C28.9665 38.7382 28.4913 39.7591 27.2149 40.5799C26.0617 41.3043 24.0049 40.9581 24.0668 39.5707C24.1135 38.5455 25.5016 38.3091 25.3128 39.1287C25.2005 39.6247 26.4975 39.6965 25.8748 38.624C25.2521 37.5516 23.8179 38.5013 23.5685 39.1287C23.3196 38.5 21.8867 37.5522 21.2622 38.624C20.6376 39.6959 21.9365 39.6247 21.8236 39.1287C21.636 38.3091 23.0235 38.5455 23.069 39.5707C23.1297 40.9581 21.0752 41.3043 19.9221 40.5799C18.6475 39.7598 18.1693 38.7382 18.3956 38.3085C18.5607 37.9979 18.7786 37.7099 19.019 37.8683C19.2059 38.4994 19.95 38.8764 19.8905 38.1206C19.8298 37.3005 18.8945 37.1114 18.5826 37.3005C18.1128 37.465 17.8992 37.9199 17.8342 37.8039C16.5882 35.5975 16.2143 36.0088 15.8399 35.6933C15.0952 35.064 15.3865 34.3587 15.3865 34.3587C15.6535 34.0517 15.9673 33.9007 16.2453 33.5502C16.4906 33.073 16.6196 32.5434 16.6216 32.0056C16.6216 31.1547 16.2143 30.3382 15.571 29.7587C15.571 29.7587 15.0023 29.0435 15.4071 28.7912C15.5285 28.7145 15.7488 28.9422 15.8132 28.6955C15.9054 28.4131 15.8696 28.3308 15.3446 28.2872C14.5981 28.2258 15.0727 29.1958 14.66 29.3591C14.0992 29.5782 13.6282 29.7679 13.6282 30.2093C13.6282 30.4807 13.6604 30.7127 13.9402 30.5863C14.1593 29.8944 14.3147 30.0466 14.4391 29.957C15.4029 29.957 16.2459 30.8815 16.2459 32.0222C16.2385 32.6131 16.016 33.1806 15.6208 33.6159C15.1047 34.062 14.4479 34.3067 13.769 34.3059C12.1783 34.3059 10.8879 32.9799 10.8879 31.3432C10.6992 28.8545 12.1953 27.3406 13.5584 26.5781C15.0909 25.9139 16.184 24.1839 16.184 22.158C16.184 19.9977 15.0618 18.3304 13.2531 17.5734C12.7676 17.245 13.0104 17.1713 13.1609 16.8165C13.2131 16.6937 13.207 16.5145 13.2216 16.3119C13.2683 15.7238 13.21 16.0049 13.1609 15.7133C13.1427 15.6169 13.0055 15.5114 13.0359 15.2093C13.1609 14.0122 14.4093 14.5254 14.5004 14.9889C14.5945 15.4616 14.4282 15.4144 14.3134 15.5249C13.7842 15.3352 13.9693 15.6783 14.0015 15.7766C14.0956 16.0596 14.4075 16.1596 14.7814 15.903C15.0921 15.8079 15.2196 15.3407 15.3112 15.3671C15.9084 15.5408 16.184 14.8631 15.9345 14.8305C15.6851 14.798 15.3731 15.1154 15.1559 14.8305C14.4057 13.8581 13.1645 13.9097 12.943 14.3259C12.537 15.0828 12.1947 14.6734 12.1947 14.6734C12.1947 14.6734 11.6351 14.2657 11.6958 14.2326C12.662 13.6967 13.0996 13.3903 14.5945 11.8998C15.2487 11.1422 16.8231 9.02182 17.2425 8.68479C18.6147 7.57977 21.1996 5.65888 22.6963 6.85721C23.2923 7.33544 23.069 7.86462 22.8511 8.05493C22.6023 8.30602 22.4305 7.44103 22.3219 7.48646C21.9783 7.54785 22.5088 8.11693 22.2612 8.36925C22.0287 8.62217 21.6099 8.31584 21.6372 8.05493C21.6979 7.45515 20.3293 8.59086 21.9795 9.06295C22.3322 9.1624 22.3231 8.94017 22.5725 8.9678C22.822 8.99542 23.1321 9.31527 23.5685 9.25203C24.0049 9.31342 24.3168 8.99972 24.5669 8.9678C24.8169 8.93588 24.8097 9.1624 25.158 9.06295C26.8101 8.59086 25.4378 7.45515 25.5022 8.05493C25.5295 8.31584 25.1101 8.62217 24.8782 8.36925C24.6294 8.11693 25.158 7.55031 24.8175 7.48646C24.7071 7.43858 24.5371 8.30602 24.2883 8.05493C24.0686 7.86462 23.8471 7.33544 24.4431 6.85721C25.9379 5.65827 28.5247 7.58161 29.8963 8.68479C30.3157 9.02121 31.8901 11.1404 32.5449 11.8998C34.038 13.3897 34.3208 13.6009 35.4436 14.2326C35.5043 14.2664 34.9126 14.7047 34.9126 14.7047C34.9126 14.7047 34.6328 14.9257 34.1964 14.3259C33.919 13.9465 32.7313 13.8581 31.9835 14.8305C31.7657 15.1154 31.4543 14.7998 31.2049 14.8305C30.9554 14.8612 31.231 15.5408 31.8282 15.3671C31.9198 15.3407 32.0454 15.8079 32.3574 15.903C32.7313 16.1596 33.0432 16.0596 33.1379 15.7766C33.1701 15.6783 33.3552 15.3352 32.8247 15.5249C32.7113 15.4144 32.545 15.4635 32.639 14.9889C32.7301 14.5254 33.9785 14.0122 34.1035 15.2093C34.1339 15.5114 33.9949 15.6169 33.9785 15.7133C33.9281 16.0025 33.8699 15.7238 33.9148 16.3119C33.9324 16.5145 33.9251 16.6949 33.9785 16.8165C34.1296 17.1713 34.3718 17.2462 33.8844 17.5734C32.0776 18.3304 30.9548 19.9977 30.9548 22.158C30.9548 24.187 32.0473 25.9163 33.581 26.5781C34.9435 27.3406 36.4384 28.8545 36.2515 31.3432L36.2496 31.3444Z" fill="#1E2347"/>
<path fill-rule="evenodd" clip-rule="evenodd" d="M41.1411 29.359C40.8613 31.911 39.6844 34.6674 37.9935 36.5447C37.1098 37.527 36.4355 38.4349 33.3202 40.5793C29.2701 42.8507 25.6856 44.3603 23.5984 46C21.5106 44.3603 17.9273 42.8482 13.876 40.5793C10.7613 38.4349 10.087 37.5257 9.20268 36.5447C7.51238 34.6674 6.33616 31.911 6.05636 29.359C5.71406 26.0649 6.95947 23.1488 9.01574 21.1316C9.66941 20.3752 9.23363 19.9983 8.92288 19.3985C8.36694 18.3297 8.23706 17.8552 7.30178 15.9969C6.80289 15.0024 6.54919 14.2731 6.67968 13.6328C7.14641 11.9292 8.92531 11.2766 9.54681 10.5129C9.65666 10.3767 9.88305 10.2987 9.95102 10.1655C10.0176 10.0169 10.0283 9.84884 9.98137 9.69277C9.98137 9.68725 9.28826 8.33237 9.35927 8.11628C9.50311 7.68041 11.8519 6.38263 13.7838 5.59499C16.1198 4.74413 17.3901 4.39789 19.4889 3.86134C22.072 3.19833 23.6008 2 23.6008 2C23.6008 2 25.1279 3.19833 27.7134 3.86011C29.8103 4.39666 31.0788 4.7429 33.4155 5.59377C35.3479 6.3814 37.6973 7.68102 37.8406 8.11505C37.9116 8.33114 37.2203 9.68602 37.2173 9.69154C37.1707 9.84781 37.1821 10.0159 37.2494 10.1642C37.3162 10.2975 37.5438 10.3754 37.6542 10.5117C38.2776 11.276 40.0534 11.9286 40.5202 13.6315C40.6507 14.2725 40.3988 15.0018 39.8969 15.9957C38.9628 17.8558 38.8353 18.3285 38.2776 19.3985C37.9656 19.9983 37.5292 20.3752 38.1847 21.1322C40.2404 23.1488 41.4864 26.0667 41.1435 29.3584L41.1411 29.359ZM40.0188 28.6653C39.9885 25.9857 39.086 23.5595 37.1541 21.6368C36.001 20.5643 36.4987 20.3329 36.8725 19.6201C37.4339 18.5483 37.338 18.5538 38.2745 16.5617C38.6994 15.6617 39.458 14.3885 39.1782 13.5358C38.8347 12.7807 37.1311 11.621 37.0273 11.5517C36.4592 11.1674 36.0635 10.8905 35.6569 10.5117C35.4584 10.1802 35.689 10.0071 35.689 10.0071C35.689 10.0071 36.4173 8.82042 36.3117 8.61968C35.7503 7.54842 30.4245 5.78285 27.4633 5.08914C26.0401 4.75641 23.6008 3.38741 23.6008 3.38741C23.6008 3.38741 21.1592 4.75641 19.7383 5.08914C16.7753 5.78285 11.4465 7.54842 10.8869 8.61968C10.7807 8.82042 11.509 10.0071 11.509 10.0071C11.509 10.0071 11.7396 10.1802 11.5412 10.5117C11.1364 10.8905 10.7376 11.1667 10.1689 11.5517C10.0669 11.6204 8.36208 12.7795 8.01856 13.5358C7.73877 14.3885 8.49864 15.6617 8.92349 16.5617C9.85998 18.5538 9.76287 18.5483 10.3243 19.6189C10.6988 20.3316 11.197 20.5631 10.0445 21.6356C8.11264 23.5583 7.20953 25.9844 7.17918 28.6641C7.3649 31.5003 8.26801 33.8644 11.0113 36.829C11.8944 37.8112 13.1295 38.8468 16.2764 40.5486C19.2376 42.0931 21.4183 43.0042 23.5675 44.6144C25.7184 43.0066 27.9616 42.0931 30.9222 40.5486C34.0691 38.8468 35.3042 37.8112 36.1885 36.829C38.9294 33.8669 39.8301 31.5028 40.0194 28.6641L40.0188 28.6653Z" fill="#1E2347"/>
<path fill-rule="evenodd" clip-rule="evenodd" d="M29.2131 23.3262C28.6262 22.1598 27.6296 21.355 26.5287 21.0382L26.5893 20.8184C27.1811 19.9356 27.4318 18.7662 27.4621 17.6648C27.4627 17.4636 27.4442 17.2627 27.4069 17.065C27.5325 16.9717 27.9731 17.2265 28.3343 17.7606C28.7385 18.3585 29.2064 17.8557 28.801 17.539C28.4872 17.2934 28.1783 16.1221 28.1467 15.9005C28.1152 15.6789 28.1164 14.8605 28.1789 14.7341C28.3179 14.4523 28.1789 13.6616 27.8044 14.4185C27.4299 15.1755 26.8995 14.9858 26.8995 14.9858C26.6197 14.3878 25.8677 13.1748 24.5325 12.8433C24.7182 12.3693 25.4028 11.7382 26.3976 11.3282C26.9122 11.1188 27.3213 10.9776 27.7419 10.9512C27.8967 10.6682 27.9294 10.4785 27.8026 10.4785C27.0227 10.4785 25.9132 10.8407 25.4404 11.0611C24.9651 11.2704 24.4583 11.397 23.9413 11.4356C23.513 11.4767 23.0813 11.4608 22.6571 11.3883C21.9626 11.2698 21.277 11.1033 20.605 10.8898C19.9186 10.4153 19.8567 11.1403 19.9726 11.2355C20.4231 11.3705 20.8573 11.5558 21.2672 11.788C21.6738 12.0949 21.9567 12.4547 22.194 12.7813C21.547 13.0201 20.934 13.4928 20.6669 13.9477C20.3993 13.5014 19.7899 13.095 19.3268 13.095C18.1888 12.9722 17.6135 13.7451 17.6135 14.4664C17.6165 14.6396 17.6568 14.81 17.7317 14.9657C17.8065 15.1215 17.9141 15.2588 18.0468 15.3682C18.0468 15.3682 18.4541 15.5855 18.7223 15.3682C18.8255 15.2817 18.7351 15.1349 18.7351 15.022C18.4862 14.7052 18.5749 14.2006 19.1096 14.2006C19.6443 14.2006 20.0812 14.7034 20.0812 15.27C18.9281 15.8839 17.9934 16.992 17.9934 18.2167C17.9934 19.512 18.7721 20.6588 20.3307 21.2248V27.5302C20.3307 27.5302 20.3914 28.2239 19.6758 27.3405C19.4937 27.1152 19.2856 27.0035 19.0519 26.6486C18.2107 25.2931 17.5783 24.0948 17.3701 24.0948C17.0897 24.0948 16.8409 24.1261 17.1522 24.6301C17.4379 25.0938 17.5887 25.6295 17.5874 26.1759C17.5874 26.6793 17.6918 27.2969 16.6218 28.1607C16.1544 28.5394 16.5914 28.9176 16.9956 28.5394C17.3998 28.1613 17.7749 28.2239 17.8963 28.2239C18.241 28.2239 19.0495 28.2853 19.8294 29.138C19.9604 29.1848 20.0733 29.2728 20.1513 29.3891C20.2294 29.5054 20.2687 29.6439 20.2633 29.7844C20.2661 29.8771 20.2504 29.9695 20.2172 30.0559C20.184 30.1424 20.134 30.2212 20.0701 30.2878C20.0062 30.3543 19.9298 30.4072 19.8453 30.4434C19.7609 30.4795 19.6701 30.4981 19.5784 30.4981C19.4867 30.4981 19.3959 30.4795 19.3115 30.4434C19.227 30.4072 19.1506 30.3543 19.0867 30.2878C19.0229 30.2212 18.9728 30.1424 18.9397 30.0559C18.9065 29.9695 18.8908 29.8771 18.8935 29.7844C18.8935 29.6002 18.9718 29.5788 19.0804 29.4529C19.0804 29.4529 18.9554 29.0434 18.4887 29.3915C18.3187 29.5143 17.9273 29.9594 18.0523 30.2743C18.0832 31.0619 19.1035 31.922 20.5753 31.1571C20.8181 31.5524 21.2672 32.0933 21.7285 32.3849C22.2055 32.6869 22.6898 32.7367 22.6492 32.8686C22.5402 33.2092 22.3598 33.5219 22.1204 33.7854C21.8809 34.0489 21.588 34.257 21.2617 34.3954C20.548 34.5139 19.921 34.4967 19.8288 33.8963C19.362 32.9196 20.5128 33.1719 20.1711 32.5107C19.8895 32.415 19.5168 32.4463 19.3645 32.5163C18.8704 32.8275 18.5494 33.3143 18.5494 33.8668C18.5494 34.8055 19.4846 35.5686 20.6378 35.5686C21.1072 35.5726 21.5676 35.4382 21.9627 35.1818C22.4276 34.8687 22.9751 34.6213 23.2543 34.1799C23.5656 34.6213 24.5725 35.2045 24.8438 35.3783C25.3421 35.6932 26.8995 35.8829 25.7785 35.1259C23.9808 33.9141 24.2521 32.6704 24.2521 32.6704C25.4659 32.639 27.5556 30.9361 27.8469 28.8433C29.6246 27.7905 30.2406 25.3717 29.2113 23.3287L29.2131 23.3262ZM20.3289 19.8399C19.5484 19.4304 19.2686 18.8337 19.2686 18.2321C19.2686 17.609 19.7092 16.9858 20.3289 16.5309V19.8399ZM22.8513 13.7574V14.6389C22.1035 14.5775 21.5118 14.7973 21.4814 14.7752C21.6228 14.2945 22.1096 13.8058 22.8513 13.7574ZM22.8513 15.6936V20.3138C22.8513 20.3138 22.1673 20.3752 21.8237 20.2493C21.7582 20.2278 21.6987 20.1909 21.6501 20.1416C21.6015 20.0923 21.5651 20.032 21.5439 19.9657V15.9355C21.969 15.8045 22.4078 15.7244 22.8513 15.6967V15.6936ZM22.8513 31.5414C22.0435 31.2897 21.6726 30.5162 21.6374 29.9882C21.97 30.0496 22.3858 30.2098 22.8513 30.1773V31.5414ZM22.8513 28.7592C22.8513 28.9526 22.2352 28.8943 21.8541 28.602C21.7049 28.4809 21.5963 28.316 21.5433 28.13V23.1795H22.8513V28.7592ZM22.8834 22.1088H21.5743V21.417C22.0077 21.4815 22.4454 21.5126 22.8834 21.5103V22.1088ZM24.2539 13.9096C24.8972 14.0741 25.407 14.5302 25.5618 14.9845C25.5011 14.9845 24.5027 14.6371 24.2539 14.7003V13.9096ZM24.249 15.712C24.6235 15.712 24.5658 15.8348 25.0945 15.8679C25.3427 15.96 25.9169 16.0306 26.0601 16.2461C26.2391 16.5088 26.2695 17.0558 26.2476 17.663C26.1633 19.218 25.9053 19.838 25.4064 20.4998C25.3257 20.7331 25.0684 20.6784 24.8147 20.6257C24.629 20.5892 24.442 20.5581 24.2539 20.5323L24.249 15.712ZM24.2861 31.4671V30.1779C25.1436 30.1282 25.8695 29.9717 26.1851 29.801C26.1548 30.2731 25.3124 31.1313 24.2861 31.4702V31.4671ZM26.3745 28.3479C25.875 28.6321 25.4374 28.82 25.0326 28.8519C24.2861 28.82 24.2539 28.9225 24.2539 28.7905V23.6227C24.2539 23.6227 26.6209 24.3164 26.7156 27.1833C26.7235 27.4326 26.7763 28.16 26.3745 28.3497V28.3479ZM27.8384 26.8395L27.8123 26.7708C27.7832 26.1182 27.5653 25.3527 27.158 24.6086C26.5159 23.4355 25.469 22.611 24.8456 22.4538C24.8939 22.3944 24.9533 22.3452 25.0204 22.309C25.6881 21.7608 27.2054 22.4588 27.9197 23.7584C28.6159 24.7234 28.5085 26.2293 27.8384 26.8395Z" fill="#1E2347"/>
</svg>
