<svg width="44" height="45" viewBox="0 0 44 45" fill="none" xmlns="http://www.w3.org/2000/svg">
<rect y="0.5" width="44" height="44" rx="22" fill="#1C77CF"/>
<path d="M32.8596 22.4996C32.8596 16.4996 27.9996 11.6396 21.9996 11.6396C19.0056 11.6396 16.2816 12.8576 14.3196 14.8196C12.3576 16.7816 11.1396 19.5056 11.1396 22.4996C11.1396 24.8456 11.8896 27.0116 13.1556 28.7876V28.7996L13.4676 29.2076C13.4676 29.2076 13.4676 29.2136 13.4736 29.2196C13.5816 29.3576 13.6956 29.4896 13.8096 29.6216C13.8816 29.6996 13.9536 29.7776 14.0256 29.8556C14.1996 30.0476 14.3796 30.2276 14.5716 30.4076C14.6616 30.4916 14.7516 30.5756 14.8416 30.6536C15.0036 30.7976 15.1716 30.9356 15.3456 31.0676C15.4716 31.1696 15.6036 31.2656 15.7356 31.3556C15.8496 31.4336 15.9636 31.5176 16.0776 31.5896C16.2816 31.7216 16.4856 31.8476 16.6956 31.9616C16.7976 32.0216 16.8996 32.0756 17.0076 32.1296C17.2236 32.2436 17.4396 32.3456 17.6616 32.4476C17.7516 32.4836 17.8356 32.5196 17.9256 32.5556C18.1536 32.6516 18.3876 32.7356 18.6276 32.8136C18.6996 32.8376 18.7656 32.8616 18.8376 32.8856C19.1196 32.9696 19.4076 33.0416 19.7016 33.1076C19.7736 33.1256 19.8396 33.1376 19.9116 33.1496C20.2116 33.2096 20.5176 33.2576 20.8296 33.2876C20.8836 33.2876 20.9376 33.2996 20.9916 33.2996C21.3216 33.3296 21.6576 33.3536 21.9996 33.3536C22.3416 33.3536 22.6776 33.3356 23.0076 33.2996C23.0616 33.2996 23.1156 33.2936 23.1697 33.2876C23.4816 33.2516 23.7876 33.2036 24.0876 33.1496C24.1596 33.1376 24.2256 33.1196 24.2976 33.1076C24.5916 33.0416 24.8796 32.9696 25.1616 32.8856C25.2336 32.8616 25.2997 32.8376 25.3716 32.8136C25.6116 32.7356 25.8397 32.6516 26.0736 32.5556C26.1636 32.5196 26.2476 32.4836 26.3376 32.4476C26.5596 32.3516 26.7816 32.2436 26.9976 32.1296C27.0996 32.0756 27.2076 32.0216 27.3097 31.9616C27.5196 31.8416 27.7236 31.7156 27.9276 31.5836C28.0416 31.5056 28.1556 31.4276 28.2696 31.3496C28.4016 31.2536 28.5276 31.1576 28.6596 31.0616C28.8336 30.9296 29.0016 30.7916 29.1637 30.6476C29.2536 30.5636 29.3436 30.4856 29.4336 30.4016C29.6196 30.2276 29.7996 30.0416 29.9796 29.8496C30.0516 29.7716 30.1236 29.6936 30.1957 29.6096C30.3096 29.4776 30.4236 29.3456 30.5316 29.2076C30.5316 29.2076 30.5316 29.2016 30.5376 29.1956L30.8616 28.7876V28.7756C32.1156 26.9996 32.8716 24.8336 32.8716 22.4876L32.8596 22.4996ZM27.0816 30.5636C26.8356 30.7196 26.5777 30.8636 26.3196 31.0016C26.2416 31.0376 26.1636 31.0736 26.0916 31.1156C25.8696 31.2236 25.6416 31.3196 25.4076 31.4096C25.3056 31.4456 25.2096 31.4876 25.1076 31.5176C24.8856 31.5956 24.6636 31.6616 24.4356 31.7216C24.3216 31.7516 24.2136 31.7816 24.0996 31.8056C23.8656 31.8596 23.6256 31.8956 23.3796 31.9316C23.2716 31.9496 23.1696 31.9676 23.0676 31.9796C22.7196 32.0156 22.3656 32.0396 22.0116 32.0396C21.6516 32.0396 21.3036 32.0156 20.9556 31.9796C20.8476 31.9676 20.7456 31.9496 20.6436 31.9316C20.4036 31.8956 20.1636 31.8596 19.9236 31.8056C19.8096 31.7816 19.7016 31.7516 19.5876 31.7216C19.3596 31.6616 19.1376 31.5956 18.9156 31.5176C18.8136 31.4816 18.7116 31.4456 18.6156 31.4096C18.3816 31.3196 18.1536 31.2236 17.9316 31.1156C17.8536 31.0796 17.7756 31.0436 17.7036 31.0016C17.4396 30.8696 17.1876 30.7256 16.9416 30.5636C16.9116 30.5456 16.8756 30.5276 16.8456 30.5036C16.1136 30.0236 15.4536 29.4416 14.8776 28.7876C15.0096 28.6376 15.1416 28.4936 15.2796 28.3556C17.0076 26.6276 19.3896 25.5596 22.0236 25.5596C24.8736 25.5596 27.4056 26.8196 29.1576 28.7996C28.5816 29.4476 27.9336 30.0296 27.2016 30.5036C27.1716 30.5216 27.1356 30.5396 27.1056 30.5636H27.0816ZM19.4976 22.6016C18.8556 21.9596 18.4596 21.0776 18.4596 20.0996C18.4596 19.1216 18.8556 18.2396 19.4976 17.5976C20.1396 16.9556 21.0216 16.5596 21.9996 16.5596C22.9776 16.5596 23.8596 16.9556 24.5016 17.5976C25.1436 18.2396 25.5396 19.1216 25.5396 20.0996C25.5396 21.0776 25.1436 21.9596 24.5016 22.6016C23.8596 23.2436 22.9776 23.6396 21.9996 23.6396C21.0216 23.6396 20.1396 23.2436 19.4976 22.6016ZM15.2556 15.7556C16.9836 14.0276 19.3656 12.9596 21.9996 12.9596C24.6336 12.9596 27.0156 14.0276 28.7436 15.7556C30.4716 17.4836 31.5396 19.8656 31.5396 22.4996C31.5396 24.4376 30.9576 26.2376 29.9676 27.7376C28.4496 26.0936 26.4276 24.9116 24.1416 24.4556C25.7496 23.6636 26.8596 22.0136 26.8596 20.0996C26.8596 17.4176 24.6816 15.2396 21.9996 15.2396C20.6616 15.2396 19.4376 15.7856 18.5616 16.6616C17.6856 17.5376 17.1396 18.7556 17.1396 20.0996C17.1396 22.0136 18.2436 23.6576 19.8516 24.4556C17.7156 24.8876 15.8016 25.9376 14.3196 27.4196C14.2176 27.5216 14.1216 27.6296 14.0256 27.7316C13.0356 26.2256 12.4596 24.4316 12.4596 22.4996C12.4596 19.8656 13.5276 17.4836 15.2556 15.7556Z" fill="white"/>
</svg>
