<svg width="24" height="24" viewBox="0 0 24 24" fill="none" xmlns="http://www.w3.org/2000/svg">
<path d="M22.7039 11.7181C21.9359 9.8041 20.7059 8.1421 19.1519 6.8761L18.2339 7.7941C19.5959 8.8741 20.6939 10.3081 21.4079 11.9581C19.7939 15.7081 16.1879 18.3121 12.0059 18.3121C10.7399 18.3121 9.52188 18.0721 8.39988 17.6341L7.42188 18.6121C8.82588 19.2421 10.3739 19.5961 12.0059 19.5961C16.8419 19.5961 20.9699 16.5301 22.7099 12.1981L22.8059 11.9581L22.7099 11.7181H22.7039Z" fill="#636574"/>
<path d="M12 15.024C11.7 15.024 11.412 14.97 11.136 14.886L10.458 15.564C10.932 15.768 11.454 15.882 12 15.882C14.172 15.882 15.924 14.124 15.93 11.952C15.93 11.406 15.816 10.884 15.612 10.41L14.934 11.088C15.012 11.364 15.072 11.646 15.072 11.952C15.072 12.804 14.73 13.566 14.172 14.124C13.614 14.682 12.852 15.024 12 15.024Z" fill="#636574"/>
<path d="M20.4659 2.58606L17.3639 5.68806C15.7619 4.81806 13.9379 4.32006 11.9999 4.32006C7.16395 4.32006 3.03595 7.38606 1.29595 11.7181L1.19995 11.9581L1.29595 12.1981C2.17195 14.3761 3.65395 16.2181 5.51995 17.5261L2.23795 20.8081L3.14395 21.7141L21.3719 3.49206L20.4659 2.58606ZM2.59795 11.9581C4.21195 8.20806 7.81795 5.60406 11.9999 5.60406C13.5779 5.60406 15.0719 5.97606 16.4099 6.64206L14.2739 8.77806C13.6319 8.31606 12.8519 8.03406 11.9999 8.03406C9.82795 8.03406 8.07595 9.79206 8.06995 11.9641C8.06995 12.8161 8.35795 13.5961 8.81395 14.2381L6.44395 16.6081C4.76995 15.4861 3.41995 13.8781 2.59195 11.9641L2.59795 11.9581ZM8.93395 11.9581C8.93395 11.1061 9.27595 10.3441 9.83395 9.78606C10.3919 9.22806 11.1539 8.88606 12.0059 8.88606C12.6239 8.88606 13.188 9.07206 13.6679 9.38406L9.44395 13.6081C9.13195 13.1281 8.93995 12.5701 8.93995 11.9521L8.93395 11.9581Z" fill="#636574"/>
</svg>
