<svg width="24" height="24" viewBox="0 0 24 24" fill="none" xmlns="http://www.w3.org/2000/svg">
<path d="M22.7221 11.712C20.9821 7.374 16.8421 4.302 12.0001 4.302C7.15813 4.302 3.02413 7.374 1.27813 11.712L1.18213 11.958L1.27813 12.204C3.01813 16.542 7.15813 19.614 12.0001 19.614C16.8421 19.614 20.9761 16.542 22.7221 12.204L22.8181 11.958L22.7221 11.712ZM12.0001 18.294C7.82413 18.294 4.23013 15.702 2.61613 11.958C4.23013 8.214 7.82413 5.622 12.0001 5.622C16.1761 5.622 19.7701 8.214 21.3841 11.958C19.7701 15.702 16.1761 18.294 12.0001 18.294Z" fill="#636574"/>
<path d="M12 7.974C9.80397 7.974 8.02197 9.756 8.02197 11.952C8.02197 14.148 9.80397 15.93 12 15.93C14.196 15.93 15.978 14.148 15.978 11.952C15.978 9.756 14.196 7.974 12 7.974ZM14.136 14.088C13.59 14.634 12.834 14.97 12 14.97C11.166 14.97 10.416 14.634 9.86397 14.088C9.31797 13.542 8.98197 12.786 8.98197 11.952C8.98197 11.118 9.31797 10.368 9.86397 9.816C10.41 9.27 11.166 8.934 12 8.934C12.834 8.934 13.584 9.27 14.136 9.816C14.682 10.362 15.018 11.118 15.018 11.952C15.018 12.786 14.682 13.536 14.136 14.088Z" fill="#636574"/>
</svg>
