<svg width="16" height="16" viewBox="0 0 16 16" fill="none" xmlns="http://www.w3.org/2000/svg">
<path d="M9.26001 7.504C9.70001 7.252 10.22 6.956 10.66 6.564C10.88 6.368 11.08 6.144 11.228 5.876C11.376 5.612 11.472 5.3 11.472 4.968V2.432H12.236V1.552H3.76401V2.432H4.52801V4.968C4.52801 5.524 4.78801 5.992 5.12001 6.348C5.62001 6.884 6.29201 7.244 6.82401 7.552C7.08801 7.704 7.31601 7.84 7.45201 7.948C7.47601 7.968 7.49201 7.984 7.51201 8C7.49201 8.02 7.47201 8.036 7.44401 8.06C7.29201 8.176 7.03601 8.328 6.74401 8.492C6.30401 8.744 5.78401 9.04 5.34401 9.432C5.12401 9.628 4.92401 9.852 4.77601 10.12C4.62801 10.384 4.53201 10.696 4.53201 11.028V13.564H3.76801V14.444H12.236V13.564H11.472V11.028C11.472 10.472 11.212 10.004 10.88 9.648C10.38 9.112 9.70801 8.752 9.17601 8.444C8.91201 8.292 8.68401 8.156 8.54801 8.048C8.52401 8.028 8.50801 8.012 8.48801 7.996C8.50801 7.976 8.52801 7.96 8.55601 7.936C8.70801 7.82 8.96401 7.668 9.25601 7.504H9.26001ZM7.21601 6.764C6.77201 6.512 6.28801 6.232 5.94401 5.924C5.77201 5.772 5.63201 5.612 5.54401 5.452C5.45601 5.292 5.40801 5.14 5.40801 4.968V2.432H10.592V4.968C10.592 5.248 10.472 5.488 10.236 5.748C9.88401 6.136 9.27601 6.48 8.74001 6.788C8.47201 6.944 8.22001 7.088 8.00801 7.252L8.00001 7.26C7.77601 7.084 7.50801 6.928 7.22001 6.764H7.21601ZM8.78001 9.232C9.22401 9.484 9.70801 9.764 10.052 10.072C10.224 10.224 10.364 10.384 10.452 10.544C10.54 10.704 10.588 10.856 10.588 11.028V13.564H5.40801V11.028C5.40801 10.748 5.52801 10.508 5.76401 10.248C6.11601 9.86 6.72401 9.516 7.26001 9.208C7.52801 9.052 7.78001 8.908 7.99201 8.744L8.00001 8.736C8.22401 8.912 8.49201 9.068 8.78001 9.232Z" fill="#AA4500"/>
<path d="M9.69205 11.916H6.30405V12.556H9.69205V11.916Z" fill="#AA4500"/>
</svg>
